<svg width="276" height="275" xmlns="http://www.w3.org/2000/svg" xmlns:xlink="http://www.w3.org/1999/xlink" overflow="hidden"><defs><clipPath id="clip0"><rect x="1729" y="767" width="276" height="275"/></clipPath></defs><g clip-path="url(#clip0)" transform="translate(-1729 -767)"><path d="M1731.5 904.5C1731.5 829.942 1792.17 769.5 1867 769.5 1941.83 769.5 2002.5 829.942 2002.5 904.5 2002.5 979.058 1941.83 1039.5 1867 1039.5 1792.17 1039.5 1731.5 979.058 1731.5 904.5Z" stroke="#2F528F" stroke-width="4.58333" stroke-miterlimit="8" fill="#2F5597" fill-rule="evenodd"/><path d="M1758 904C1758 843.801 1806.58 795 1866.5 795 1926.42 795 1975 843.801 1975 904 1975 964.199 1926.42 1013 1866.5 1013 1806.58 1013 1758 964.199 1758 904Z" fill="#F2F2F2" fill-rule="evenodd"/><path d="M1846.54 962.981 1844.72 964.034 1846.3 963.178ZM1924.02 918.218 1923.88 918.299 1924 918.233ZM1837.27 842.127C1828.88 842.127 1821.87 848.059 1820.25 855.945L1819.91 859.336 1819.9 859.24 1819.9 859.431 1819.9 859.432 1819.9 859.433 1819.9 859.433 1819.9 945.434 1819.98 945.168 1819.98 952.162 1820.96 955.304C1823.6 961.515 1829.77 965.873 1836.97 965.873 1839.37 965.873 1841.65 965.389 1843.73 964.514L1845.08 963.783 1846.71 962.841 1846.54 962.981 1922.37 919.173 1923.39 918.619 1923.54 918.535 1923.69 918.407 1923.88 918.299 1923.72 918.387 1926.12 916.41C1929.31 913.238 1931.28 908.855 1931.28 904.014 1931.28 899.173 1929.31 894.79 1926.12 891.618L1923.93 889.815 1924.02 889.868 1924 889.853 1923.92 889.81 1923.54 889.493 1923.39 889.409 1920.81 888.013 1848.13 846.019 1847.56 845.55 1843.93 843.453 1840.77 842.479C1839.64 842.248 1838.47 842.127 1837.27 842.127ZM1866.5 775C1938.02 775 1996 832.755 1996 904 1996 975.245 1938.02 1033 1866.5 1033 1794.98 1033 1737 975.245 1737 904 1737 832.755 1794.98 775 1866.5 775Z" fill="#4472C4" fill-rule="evenodd"/></g></svg>