<svg width="873" height="873" xmlns="http://www.w3.org/2000/svg" xmlns:xlink="http://www.w3.org/1999/xlink" overflow="hidden"><defs><clipPath id="clip0"><rect x="1492" y="1082" width="873" height="873"/></clipPath></defs><g clip-path="url(#clip0)" transform="translate(-1492 -1082)"><path d="M1790.92 1742.25 2067.08 1742.25 2016.21 1799 1841.79 1799ZM1790.92 1675.67 2067.08 1675.67 2067.08 1719.58 1790.92 1719.58ZM1929 1205C2052.71 1205 2153 1305.29 2153 1429 2153 1490.85 2127.93 1546.85 2087.39 1587.39L2067.08 1604.15 2067.08 1653 1929 1653 1790.92 1653 1790.92 1604.15 1770.61 1587.39C1730.07 1546.85 1705 1490.85 1705 1429 1705 1305.29 1805.29 1205 1929 1205Z" fill="#7F7F7F" fill-rule="evenodd"/></g></svg>